<mxfile host="app.diagrams.net" agent="Mozilla/5.0 (Windows NT 10.0; Win64; x64) AppleWebKit/537.36 (KHTML, like Gecko) Chrome/129.0.0.0 Safari/537.36" version="24.8.0" pages="3">
  <diagram name="Quy trình" id="7hOHKn8TqsQzAc5nMB9-">
    <mxGraphModel dx="1304" dy="811" grid="0" gridSize="10" guides="1" tooltips="1" connect="1" arrows="1" fold="1" page="0" pageScale="1" pageWidth="827" pageHeight="1169" math="0" shadow="0">
      <root>
        <mxCell id="0" />
        <mxCell id="1" parent="0" />
        <mxCell id="f72GHgOV_BdPcz2RNhl4-3" value="" style="edgeStyle=orthogonalEdgeStyle;rounded=0;orthogonalLoop=1;jettySize=auto;html=1;" edge="1" parent="1" source="f72GHgOV_BdPcz2RNhl4-1" target="f72GHgOV_BdPcz2RNhl4-2">
          <mxGeometry relative="1" as="geometry" />
        </mxCell>
        <mxCell id="f72GHgOV_BdPcz2RNhl4-1" value="Bắt đầu" style="rounded=1;whiteSpace=wrap;html=1;" vertex="1" parent="1">
          <mxGeometry x="352" y="225" width="120" height="60" as="geometry" />
        </mxCell>
        <mxCell id="f72GHgOV_BdPcz2RNhl4-5" value="" style="edgeStyle=orthogonalEdgeStyle;rounded=0;orthogonalLoop=1;jettySize=auto;html=1;" edge="1" parent="1" source="f72GHgOV_BdPcz2RNhl4-2" target="f72GHgOV_BdPcz2RNhl4-4">
          <mxGeometry relative="1" as="geometry" />
        </mxCell>
        <mxCell id="f72GHgOV_BdPcz2RNhl4-2" value="Thực hiện tra cứu" style="rounded=0;whiteSpace=wrap;html=1;" vertex="1" parent="1">
          <mxGeometry x="352" y="359" width="120" height="60" as="geometry" />
        </mxCell>
        <mxCell id="f72GHgOV_BdPcz2RNhl4-6" style="edgeStyle=orthogonalEdgeStyle;rounded=0;orthogonalLoop=1;jettySize=auto;html=1;entryX=1;entryY=0.5;entryDx=0;entryDy=0;" edge="1" parent="1" source="f72GHgOV_BdPcz2RNhl4-4" target="f72GHgOV_BdPcz2RNhl4-1">
          <mxGeometry relative="1" as="geometry">
            <mxPoint x="571" y="240" as="targetPoint" />
            <Array as="points">
              <mxPoint x="529" y="517" />
              <mxPoint x="529" y="255" />
            </Array>
          </mxGeometry>
        </mxCell>
        <mxCell id="f72GHgOV_BdPcz2RNhl4-7" value="No" style="edgeLabel;html=1;align=center;verticalAlign=middle;resizable=0;points=[];" vertex="1" connectable="0" parent="f72GHgOV_BdPcz2RNhl4-6">
          <mxGeometry x="0.1495" y="-2" relative="1" as="geometry">
            <mxPoint as="offset" />
          </mxGeometry>
        </mxCell>
        <mxCell id="f72GHgOV_BdPcz2RNhl4-9" value="" style="edgeStyle=orthogonalEdgeStyle;rounded=0;orthogonalLoop=1;jettySize=auto;html=1;" edge="1" parent="1" source="f72GHgOV_BdPcz2RNhl4-4" target="f72GHgOV_BdPcz2RNhl4-8">
          <mxGeometry relative="1" as="geometry" />
        </mxCell>
        <mxCell id="f72GHgOV_BdPcz2RNhl4-16" value="Yes" style="edgeLabel;html=1;align=center;verticalAlign=middle;resizable=0;points=[];" vertex="1" connectable="0" parent="f72GHgOV_BdPcz2RNhl4-9">
          <mxGeometry x="0.0032" relative="1" as="geometry">
            <mxPoint as="offset" />
          </mxGeometry>
        </mxCell>
        <mxCell id="f72GHgOV_BdPcz2RNhl4-4" value="Hệ thống" style="rhombus;whiteSpace=wrap;html=1;" vertex="1" parent="1">
          <mxGeometry x="358.5" y="471" width="107" height="92" as="geometry" />
        </mxCell>
        <mxCell id="f72GHgOV_BdPcz2RNhl4-11" style="edgeStyle=orthogonalEdgeStyle;rounded=0;orthogonalLoop=1;jettySize=auto;html=1;entryX=0;entryY=0.5;entryDx=0;entryDy=0;" edge="1" parent="1" source="f72GHgOV_BdPcz2RNhl4-8" target="f72GHgOV_BdPcz2RNhl4-10">
          <mxGeometry relative="1" as="geometry">
            <mxPoint x="197" y="657.3333740234375" as="targetPoint" />
            <Array as="points">
              <mxPoint x="197" y="660" />
            </Array>
          </mxGeometry>
        </mxCell>
        <mxCell id="f72GHgOV_BdPcz2RNhl4-8" value="Thông tin tra cứu" style="rounded=0;whiteSpace=wrap;html=1;" vertex="1" parent="1">
          <mxGeometry x="137" y="487" width="120" height="60" as="geometry" />
        </mxCell>
        <mxCell id="f72GHgOV_BdPcz2RNhl4-13" value="" style="edgeStyle=orthogonalEdgeStyle;rounded=0;orthogonalLoop=1;jettySize=auto;html=1;" edge="1" parent="1" source="f72GHgOV_BdPcz2RNhl4-10" target="f72GHgOV_BdPcz2RNhl4-12">
          <mxGeometry relative="1" as="geometry" />
        </mxCell>
        <mxCell id="f72GHgOV_BdPcz2RNhl4-10" value="Kết thúc" style="shape=document;whiteSpace=wrap;html=1;boundedLbl=1;" vertex="1" parent="1">
          <mxGeometry x="352" y="620" width="120" height="80" as="geometry" />
        </mxCell>
        <mxCell id="f72GHgOV_BdPcz2RNhl4-12" value="In và xuất danh sách" style="whiteSpace=wrap;html=1;" vertex="1" parent="1">
          <mxGeometry x="550" y="626" width="134" height="68" as="geometry" />
        </mxCell>
        <mxCell id="f72GHgOV_BdPcz2RNhl4-18" value="" style="edgeStyle=orthogonalEdgeStyle;rounded=0;orthogonalLoop=1;jettySize=auto;html=1;" edge="1" parent="1" source="f72GHgOV_BdPcz2RNhl4-17" target="f72GHgOV_BdPcz2RNhl4-8">
          <mxGeometry relative="1" as="geometry" />
        </mxCell>
        <mxCell id="f72GHgOV_BdPcz2RNhl4-17" value="Xem kết quả tra cứu" style="rounded=0;whiteSpace=wrap;html=1;" vertex="1" parent="1">
          <mxGeometry x="137" y="357" width="120" height="60" as="geometry" />
        </mxCell>
      </root>
    </mxGraphModel>
  </diagram>
  <diagram id="P4OBuvhVB_6JD7hzuBPA" name="UML-BRVT">
    <mxGraphModel dx="1062" dy="661" grid="0" gridSize="10" guides="1" tooltips="1" connect="1" arrows="1" fold="1" page="0" pageScale="1" pageWidth="827" pageHeight="1169" math="0" shadow="0">
      <root>
        <mxCell id="0" />
        <mxCell id="1" parent="0" />
        <mxCell id="Lb8CYfZ6vFEEll41kyps-1" value="Người dùng" style="shape=umlActor;verticalLabelPosition=bottom;verticalAlign=top;html=1;outlineConnect=0;" vertex="1" parent="1">
          <mxGeometry x="247" y="330" width="43" height="74" as="geometry" />
        </mxCell>
        <mxCell id="Lb8CYfZ6vFEEll41kyps-2" value="Người dùng có thể tạo hồ sơ ứng viên" style="ellipse;whiteSpace=wrap;html=1;fillColor=#fff2cc;strokeColor=#d6b656;" vertex="1" parent="1">
          <mxGeometry x="277" y="145" width="200" height="94" as="geometry" />
        </mxCell>
        <mxCell id="Lb8CYfZ6vFEEll41kyps-3" value="Người dùng có thể cập nhật hồ sơ ứng viên" style="ellipse;whiteSpace=wrap;html=1;fillColor=#fff2cc;strokeColor=#d6b656;" vertex="1" parent="1">
          <mxGeometry x="513" y="257" width="200" height="94" as="geometry" />
        </mxCell>
        <mxCell id="Lb8CYfZ6vFEEll41kyps-5" value="Người dùng có thể xem hồ sơ ứng viên" style="ellipse;whiteSpace=wrap;html=1;fillColor=#fff2cc;strokeColor=#d6b656;" vertex="1" parent="1">
          <mxGeometry x="450" y="462" width="200" height="94" as="geometry" />
        </mxCell>
        <mxCell id="Lb8CYfZ6vFEEll41kyps-6" value="" style="endArrow=classic;html=1;rounded=0;" edge="1" parent="1" target="Lb8CYfZ6vFEEll41kyps-2">
          <mxGeometry width="50" height="50" relative="1" as="geometry">
            <mxPoint x="302" y="315" as="sourcePoint" />
            <mxPoint x="459" y="262" as="targetPoint" />
          </mxGeometry>
        </mxCell>
        <mxCell id="Lb8CYfZ6vFEEll41kyps-7" value="" style="endArrow=classic;html=1;rounded=0;entryX=0.002;entryY=0.61;entryDx=0;entryDy=0;entryPerimeter=0;" edge="1" parent="1" target="Lb8CYfZ6vFEEll41kyps-3">
          <mxGeometry width="50" height="50" relative="1" as="geometry">
            <mxPoint x="339" y="366" as="sourcePoint" />
            <mxPoint x="406" y="355" as="targetPoint" />
          </mxGeometry>
        </mxCell>
        <mxCell id="Lb8CYfZ6vFEEll41kyps-8" value="" style="endArrow=classic;html=1;rounded=0;entryX=0.035;entryY=0.258;entryDx=0;entryDy=0;entryPerimeter=0;" edge="1" parent="1" target="Lb8CYfZ6vFEEll41kyps-5">
          <mxGeometry width="50" height="50" relative="1" as="geometry">
            <mxPoint x="346" y="418" as="sourcePoint" />
            <mxPoint x="406" y="355" as="targetPoint" />
          </mxGeometry>
        </mxCell>
        <mxCell id="Lb8CYfZ6vFEEll41kyps-9" value="Người dùng có thể xóa hồ sơ ứng viên" style="ellipse;whiteSpace=wrap;html=1;fillColor=#fff2cc;strokeColor=#d6b656;" vertex="1" parent="1">
          <mxGeometry x="225" y="556" width="200" height="94" as="geometry" />
        </mxCell>
        <mxCell id="Lb8CYfZ6vFEEll41kyps-10" value="" style="endArrow=classic;html=1;rounded=0;" edge="1" parent="1" target="Lb8CYfZ6vFEEll41kyps-9">
          <mxGeometry width="50" height="50" relative="1" as="geometry">
            <mxPoint x="287" y="443" as="sourcePoint" />
            <mxPoint x="406" y="355" as="targetPoint" />
          </mxGeometry>
        </mxCell>
      </root>
    </mxGraphModel>
  </diagram>
  <diagram id="fF1dvQhkJfc6OV5pCPvv" name="Trang-3">
    <mxGraphModel dx="1147" dy="714" grid="0" gridSize="10" guides="1" tooltips="1" connect="1" arrows="1" fold="1" page="0" pageScale="1" pageWidth="827" pageHeight="1169" math="0" shadow="0">
      <root>
        <mxCell id="0" />
        <mxCell id="1" parent="0" />
        <mxCell id="jMoenmfGUqtsD_WC8YZI-1" value="Người dùng" style="shape=umlActor;verticalLabelPosition=bottom;verticalAlign=top;html=1;outlineConnect=0;" vertex="1" parent="1">
          <mxGeometry x="247" y="330" width="43" height="74" as="geometry" />
        </mxCell>
        <mxCell id="jMoenmfGUqtsD_WC8YZI-2" value="Người dùng có thể xem danh sách các tin tuyển dụng" style="ellipse;whiteSpace=wrap;html=1;fillColor=#fff2cc;strokeColor=#d6b656;" vertex="1" parent="1">
          <mxGeometry x="277" y="145" width="200" height="94" as="geometry" />
        </mxCell>
        <mxCell id="jMoenmfGUqtsD_WC8YZI-3" value="Người dùng có thể tìm kiếm và lọc tin tuyển dụng" style="ellipse;whiteSpace=wrap;html=1;fillColor=#fff2cc;strokeColor=#d6b656;" vertex="1" parent="1">
          <mxGeometry x="513" y="257" width="200" height="94" as="geometry" />
        </mxCell>
        <mxCell id="jMoenmfGUqtsD_WC8YZI-4" value="Người dùng có thể xem chi tiết tin tuyển dụng" style="ellipse;whiteSpace=wrap;html=1;fillColor=#fff2cc;strokeColor=#d6b656;" vertex="1" parent="1">
          <mxGeometry x="450" y="462" width="200" height="94" as="geometry" />
        </mxCell>
        <mxCell id="jMoenmfGUqtsD_WC8YZI-5" value="" style="endArrow=classic;html=1;rounded=0;" edge="1" parent="1" target="jMoenmfGUqtsD_WC8YZI-2">
          <mxGeometry width="50" height="50" relative="1" as="geometry">
            <mxPoint x="302" y="315" as="sourcePoint" />
            <mxPoint x="459" y="262" as="targetPoint" />
          </mxGeometry>
        </mxCell>
        <mxCell id="jMoenmfGUqtsD_WC8YZI-6" value="" style="endArrow=classic;html=1;rounded=0;entryX=0.002;entryY=0.61;entryDx=0;entryDy=0;entryPerimeter=0;" edge="1" parent="1" target="jMoenmfGUqtsD_WC8YZI-3">
          <mxGeometry width="50" height="50" relative="1" as="geometry">
            <mxPoint x="339" y="366" as="sourcePoint" />
            <mxPoint x="406" y="355" as="targetPoint" />
          </mxGeometry>
        </mxCell>
        <mxCell id="jMoenmfGUqtsD_WC8YZI-7" value="" style="endArrow=classic;html=1;rounded=0;entryX=0.035;entryY=0.258;entryDx=0;entryDy=0;entryPerimeter=0;" edge="1" parent="1" target="jMoenmfGUqtsD_WC8YZI-4">
          <mxGeometry width="50" height="50" relative="1" as="geometry">
            <mxPoint x="346" y="418" as="sourcePoint" />
            <mxPoint x="406" y="355" as="targetPoint" />
          </mxGeometry>
        </mxCell>
        <mxCell id="jMoenmfGUqtsD_WC8YZI-8" value="Người dùng có thể ứng tuyển trực tiếp" style="ellipse;whiteSpace=wrap;html=1;fillColor=#fff2cc;strokeColor=#d6b656;" vertex="1" parent="1">
          <mxGeometry x="225" y="556" width="200" height="94" as="geometry" />
        </mxCell>
        <mxCell id="jMoenmfGUqtsD_WC8YZI-9" value="" style="endArrow=classic;html=1;rounded=0;" edge="1" parent="1" target="jMoenmfGUqtsD_WC8YZI-8">
          <mxGeometry width="50" height="50" relative="1" as="geometry">
            <mxPoint x="287" y="443" as="sourcePoint" />
            <mxPoint x="406" y="355" as="targetPoint" />
          </mxGeometry>
        </mxCell>
      </root>
    </mxGraphModel>
  </diagram>
</mxfile>
